<svg height="96" width="96" xmlns="http://www.w3.org/2000/svg" xmlns:xlink="http://www.w3.org/1999/xlink"><linearGradient id="a"><stop offset="0" stop-color="#fefefe"/><stop offset="1" stop-color="#fefefe" stop-opacity="0"/></linearGradient><linearGradient id="b" gradientUnits="userSpaceOnUse" x1="36.357143" x2="36.357143" xlink:href="#a" y1="6" y2="63.893143"/><radialGradient id="c" cx="48" cy="90.171875" gradientTransform="matrix(1.1573129 0 0 .99590774 -7.551021 .197132)" gradientUnits="userSpaceOnUse" r="42" xlink:href="#a"/><linearGradient id="d" gradientUnits="userSpaceOnUse" x1="48" x2="48" y1="-6" y2="-128"><stop offset="0" stop-color="#f0f0f0"/><stop offset="1" stop-color="#c6c6c6"/></linearGradient><linearGradient id="e" gradientTransform="matrix(1.0058652 0 0 .994169 100 0)" gradientUnits="userSpaceOnUse" x1="45.447727" x2="45.447727" y1="92.539597" y2="7.01654"><stop offset="0"/><stop offset="1" stop-opacity=".588235"/></linearGradient><linearGradient id="f" gradientTransform="matrix(1.0238095 0 0 -1.0119048 -1.142857 98.071429)" gradientUnits="userSpaceOnUse" x1="32.251034" x2="32.251034" xlink:href="#e" y1="6.131708" y2="90.238609"/><linearGradient id="g" gradientTransform="matrix(1.0238095 0 0 1.0119048 -1.142857 -98.071429)" gradientUnits="userSpaceOnUse" x1="32.251034" x2="32.251034" xlink:href="#e" y1="6.131708" y2="90.238609"/><linearGradient id="h" gradientTransform="translate(0 -97)" gradientUnits="userSpaceOnUse" x1="32.251034" x2="32.251034" xlink:href="#e" y1="6.131708" y2="90.238609"/><radialGradient id="i" cx="199.83839" cy="376.56888" fx="210.18059" fy="375.0166" gradientTransform="matrix(.3721999 .3906043 -.9034159 .6112583 459.72552 58.172733)" gradientUnits="userSpaceOnUse" r="61.805603"><stop offset="0" stop-color="#ffec36"/><stop offset=".11528957" stop-color="#ffd800"/><stop offset="1" stop-color="#c71100" stop-opacity="0"/></radialGradient><mask id="j"><path d="m305.17331 346.17795c-22.48188-41.05523-46.37825-121.48619-63.81147-121.41449-17.30965.0712-28.94562 80.14056-86.09485 105.73891 17.7197-7.02528 25.5045 5.9156 40.1776 39.61646 29.5245-2.79833 49.3367-42.63403 65.79162-45.25051 20.40638-3.24479 22.1172 9.94566 43.9371 21.30963z" fill="#fefefe" fill-rule="evenodd" stroke="#000" stroke-width=".434287"/></mask><radialGradient id="k" cx="240.56602" cy="131.76561" fx="240.30663" fy="110.13918" gradientTransform="matrix(.7791243 .00000023 -.00000006 1.8166168 53.135211 -108.68801)" gradientUnits="userSpaceOnUse" r="30.188679"><stop offset="0" stop-color="#ffec15"/><stop offset=".12068965" stop-color="#ffbc00"/><stop offset="1" stop-color="#c71c00" stop-opacity="0"/></radialGradient><mask id="l"><path d="m301.18218 151.46152c-22.16035-24.15314-45.71495-71.471367-62.89885-71.429189-17.06208.04188-28.53164 47.147379-84.86352 62.207109 17.46627-4.13303 25.13973 3.4802 39.60298 23.30671 29.10224-1.64629 48.63109-25.08197 64.85068-26.62127 20.11452-1.90894 21.80088 5.85112 43.30871 12.53664z" fill="#fefefe" fill-rule="evenodd" stroke="#000" stroke-width=".330713"/></mask><radialGradient id="m" cx="290.4957" cy="234.58305" gradientTransform="matrix(.09732858 .03563779 -.05823554 .15904419 43.604147 2.838123)" gradientUnits="userSpaceOnUse" r="159.07143"><stop offset="0" stop-color="#ff4a00"/><stop offset="1" stop-color="#6b1600"/></radialGradient><radialGradient id="n" cx="179.31415" cy="106.7001" fx="176.4315" fy="105.80273" gradientTransform="matrix(.05462919 .2058252 -.887959 .2512413 249.64537 45.470856)" gradientUnits="userSpaceOnUse" r="69.665276"><stop offset="0" stop-color="#003f41"/><stop offset="1" stop-opacity="0"/></radialGradient><mask id="o"><path d="m125.56276 138.77572c9.33342-8.17016 29.00121-26.84558 38.97751-26.62864 43.24273.94031 74.52786-72.702973 93.10883-66.102571l-97.30415 156.264301z" fill="#fefefe" fill-rule="evenodd" stroke="#000" stroke-width=".744559"/></mask><radialGradient id="p" cx="137.02841" cy="126.29572" fx="106.92422" fy="156.7944" gradientTransform="matrix(.9996832 -.03089122 .01793072 .6585654 -2.221163 47.354703)" gradientUnits="userSpaceOnUse" r="95.718376"><stop offset="0" stop-color="#6dd9d0"/><stop offset="1" stop-color="#6dd9d0" stop-opacity="0"/></radialGradient><mask id="q"><path d="m71.777783 155.77339c10.262811-2.16174 32.252667-7.82916 40.991767-3.31727 37.88006 19.55699 83.80934-22.95127 98.54168-9.8243l-124.710773 76.72729z" fill="#fefefe" fill-rule="evenodd" stroke="#000" stroke-width=".657782"/></mask><linearGradient id="r" gradientUnits="userSpaceOnUse" x1="18.21499299875" x2="39.08446581014" y1="52.21454429001" y2="52.21454429001"><stop offset="0" stop-color="#6dd9d0"/><stop offset="1" stop-color="#368061"/></linearGradient><g fill="url(#f)"><path d="m12 95.03125c-5.5110903 0-10.03125-4.52016-10.03125-10.03125v-71c0-5.5110902 4.5201598-10.03125 10.03125-10.03125h72c5.51109 0 10.03125 4.5201597 10.03125 10.03125v71c0 5.51109-4.52016 10.03125-10.03125 10.03125z" opacity=".08"/><path d="m12 94.03125c-4.971633 0-9.03125-4.059617-9.03125-9.03125v-71c0-4.9716329 4.0596171-9.03125 9.03125-9.03125h72c4.971633 0 9.03125 4.059617 9.03125 9.03125v71c0 4.971633-4.059617 9.03125-9.03125 9.03125z" opacity=".1"/><path d="m12 93c-4.4091333 0-8-3.590867-8-8v-71c0-4.4091333 3.5908667-8 8-8h72c4.409133 0 8 3.5908667 8 8v71c0 4.409133-3.590867 8-8 8z" opacity=".2"/></g><rect fill="url(#g)" height="85" opacity=".3" rx="7" transform="scale(1 -1)" width="86" x="5" y="-92"/><rect fill="url(#h)" height="84" opacity=".45" rx="6" transform="scale(1 -1)" width="84" x="6" y="-91"/><rect fill="url(#d)" height="84" rx="6" transform="scale(1 -1)" width="84" x="6" y="-90"/><path d="m12 6c-3.324 0-6 2.676-6 6v2 68 2c0 .334721.04135.6507.09375.96875.0487.295596.09704.596915.1875.875.00988.03038.020892.0636.03125.09375.098865.287771.2348802.547452.375.8125.1445918.273507.3156161.535615.5.78125s.3737765.473472.59375.6875c.439947.428056.94291.814526 1.5 1.09375.278545.139612.5734731.246947.875.34375-.2562018-.100222-.4867109-.236272-.71875-.375-.00741-.0044-.023866.0045-.03125 0-.031933-.0193-.062293-.04251-.09375-.0625-.120395-.0767-.2310226-.163513-.34375-.25-.1061728-.0808-.2132809-.161112-.3125-.25-.1779299-.161433-.3474596-.345388-.5-.53125-.1075789-.130255-.2183939-.265285-.3125-.40625-.025089-.03838-.038446-.08587-.0625-.125-.064763-.103032-.1302275-.204517-.1875-.3125-.1010083-.194706-.2056748-.415701-.28125-.625-.00796-.02181-.023589-.04055-.03125-.0625-.0318251-.09195-.0358045-.186831-.0625-.28125-.0303323-.106618-.0703894-.203031-.09375-.3125-.0728786-.341512-.125-.698205-.125-1.0625v-2-68-2c0-2.781848 2.2181517-5 5-5h2 68 2c2.781848 0 5 2.218152 5 5v2 68 2c0 .364295-.05212.720988-.125 1.0625-.04415.206893-.08838.397658-.15625.59375-.0077.02195-.0233.04069-.03125.0625-.06274.173739-.138383.367449-.21875.53125-.04158.0828-.07904.169954-.125.25-.0546.09721-.126774.18835-.1875.28125-.09411.140965-.204921.275995-.3125.40625-.143174.17445-.303141.346998-.46875.5-.01117.0102-.01998.02115-.03125.03125-.138386.125556-.285091.234436-.4375.34375-.102571.07315-.204318.153364-.3125.21875-.0074.0045-.02384-.0044-.03125 0-.232039.138728-.462548.274778-.71875.375.301527-.0968.596455-.204138.875-.34375.55709-.279224 1.060053-.665694 1.5-1.09375.219973-.214028.409366-.441865.59375-.6875s.355408-.507743.5-.78125c.14012-.265048.276135-.524729.375-.8125.01041-.03078.02133-.06274.03125-.09375.09046-.278085.1388-.579404.1875-.875.0524-.31805.09375-.634029.09375-.96875v-2-68-2c0-3.324-2.676-6-6-6z" fill="url(#b)" opacity=".5"/><path d="m12 90c-3.324 0-6-2.676-6-6v-2-68-2c0-.334721.04135-.6507.09375-.96875.0487-.295596.09704-.596915.1875-.875.00988-.03038.020892-.0636.03125-.09375.098865-.287771.2348802-.547452.375-.8125.1445918-.273507.3156161-.535615.5-.78125s.3737765-.473472.59375-.6875c.439947-.428056.94291-.814526 1.5-1.09375.278545-.139612.5734731-.246947.875-.34375-.2562018.100222-.4867109.236272-.71875.375-.00741.0044-.023866-.0045-.03125 0-.031933.0193-.062293.04251-.09375.0625-.120395.0767-.2310226.163513-.34375.25-.1061728.0808-.2132809.161112-.3125.25-.1779299.161433-.3474596.345388-.5.53125-.1075789.130255-.2183939.265285-.3125.40625-.025089.03838-.038446.08587-.0625.125-.064763.103032-.1302275.204517-.1875.3125-.1010083.194706-.2056748.415701-.28125.625-.00796.02181-.023589.04055-.03125.0625-.0318251.09195-.0358045.186831-.0625.28125-.0303323.106618-.0703894.203031-.09375.3125-.0728786.341512-.125.698205-.125 1.0625v2 68 2c0 2.781848 2.2181517 5 5 5h2 68 2c2.781848 0 5-2.218152 5-5v-2-68-2c0-.364295-.05212-.720988-.125-1.0625-.04415-.206893-.08838-.397658-.15625-.59375-.0077-.02195-.0233-.04069-.03125-.0625-.06274-.173739-.138383-.367449-.21875-.53125-.04158-.0828-.07904-.169954-.125-.25-.0546-.09721-.126774-.18835-.1875-.28125-.09411-.140965-.204921-.275995-.3125-.40625-.143174-.17445-.303141-.346998-.46875-.5-.01117-.0102-.01998-.02115-.03125-.03125-.138386-.125556-.285091-.234436-.4375-.34375-.102571-.07315-.204318-.153364-.3125-.21875-.0074-.0045-.02384.0044-.03125 0-.232039-.138728-.462548-.274778-.71875-.375.301527.0968.596455.204138.875.34375.55709.279224 1.060053.665694 1.5 1.09375.219973.214028.409366.441865.59375.6875s.355408.507743.5.78125c.14012.265048.276135.524729.375.8125.01041.03078.02133.06274.03125.09375.09046.278085.1388.579404.1875.875.0524.31805.09375.634029.09375.96875v2 68 2c0 3.324-2.676 6-6 6z" fill="url(#c)" opacity=".3"/><path d="m33.083337 43.841846c1.768371-2.206432 5.391095-7.139776 7.917243-7.756853 10.949696-2.674763 13.620893-18.932438 18.766179-18.876161l-13.415186 36.695766z" fill="#115540" fill-rule="evenodd"/><path d="m28.401797 62.942252-15.399802-10.841473 20.081343-8.258939 13.305428 9.983718z" fill="url(#r)" fill-rule="evenodd"/><path d="m214.77803 143.50107c14.54167 10.3496 7.65289 19.34706-10.0665 32.31019-17.7194 12.96313-42.62411 20.50998-67.68312 20.50998s-49.963712-7.54685-67.683111-20.50998c-17.719398-12.96313-28.035263-31.18289-28.035263-49.51554s19.664894 25.00457 37.384292 12.04144 25.175352 2.2348 50.234362 2.2348 29.45859 6.53042 50.53748 3.15153c19.64026-3.14828 18.45558-12.21937 35.31186-.22242z" fill="url(#p)" mask="url(#q)" transform="matrix(.20613986 -.17315615 .16061299 .19861991 -6.732154 25.330912)"/><path d="m234.36112 104.89861c.004 17.39885-7.50256 34.692-20.39937 46.99612s-31.02517 19.46759-49.2659 19.46759c-18.24074 0-36.36909-7.16347-49.2659-19.46759s-20.403164-29.59727-20.399379-46.99612c50.677409 21.51322 101.712089-40.914317 118.931179-46.99612 12.89681 12.304118 20.40316 29.597266 20.39937 46.99612z" fill="url(#n)" mask="url(#o)" transform="matrix(.25166961 -.06608528 .0710593 .19456544 -8.378298 25.138731)"/><path d="m83.101894 69.594956c-8.203526-17.746497-16.923199-52.513516-23.284498-52.482529-6.316207.03083-10.562121 34.641504-31.415599 45.706625 6.465832-3.036747 9.306468 2.557066 14.660612 17.124576 10.773353-1.209611 18.002729-18.42896 24.007052-19.559947 7.446189-1.402592 8.070461 4.299093 16.032433 9.211275z" fill="url(#m)" fill-rule="evenodd"/><path d="m270.75472 128.49057c23.67331 45.01108-51.52958 51.23765-60.37736 0 0-13.21346 3.25353-26.34556 8.84206-35.688878 5.58853-9.343322 10.91008-13.637417 18.81346-13.637417s18.29125 4.294095 23.87978 13.637417c5.58853 9.343318 8.84206 22.475418 8.84206 35.688878z" fill="url(#k)" mask="url(#l)" transform="matrix(.37018965 0 0 .73474906 -28.392624 -41.691254)"/><path d="m250.28199 344.75881c-38.37391 14.34023-60.94837 47.7589-66.69964 7.19283 0-15.15184-36.16179-15.7507-24.72033-26.46466 11.44146-10.71397 27.5225-16.9514 43.70316-16.9514 16.18067 0 32.26171 6.23743 43.70317 16.9514 12.95135 11.02895 6.49247 19.71672 4.01364 19.27183z" fill="url(#i)" mask="url(#j)" transform="matrix(.36489525 0 0 .43225916 -28.254384 -80.043638)"/></svg>